<svg xmlns="http://www.w3.org/2000/svg" viewBox="0 0 64 64" role="img" aria-label="PhotoMaster logo">
  <defs>
    <linearGradient id="bg" x1="8" x2="56" y1="6" y2="58" gradientUnits="userSpaceOnUse">
      <stop offset="0" stop-color="#12324a" />
      <stop offset="1" stop-color="#1e6a7a" />
    </linearGradient>
    <linearGradient id="sun" x1="38" x2="52" y1="12" y2="26" gradientUnits="userSpaceOnUse">
      <stop offset="0" stop-color="#ffd27a" />
      <stop offset="1" stop-color="#ff9a5a" />
    </linearGradient>
  </defs>
  <rect width="64" height="64" rx="18" fill="url(#bg)" />
  <circle cx="46" cy="18" r="7" fill="url(#sun)" />
  <path fill="#e7f3f4" d="M14 46.5 26.5 30l8.2 10.2 5.8-7.1L50 46.5z" />
  <path fill="#9ed3d8" d="M14 46.5h36L39.8 33.1 34 40.2 26.5 30z" opacity=".9" />
  <path fill="#ffffff" d="M20 17.5h8.8c7.1 0 11.2 3.7 11.2 9.8s-4.1 9.8-11.2 9.8h-3.2V46H20zm8.2 15c4 0 6-1.8 6-5.2s-2-5.1-6-5.1h-2.6v10.3z" />
</svg>
